<svg xmlns="http://www.w3.org/2000/svg" width="940" height="840" viewBox="0 0 940 840" font-family="Helvetica, Arial, sans-serif">
<rect x="0" y="0" width="940" height="840" fill="white"/>
<rect x="150" y="130" width="60" height="60" fill="#eef4fb" stroke="#bbb" stroke-width="1"/>
<rect x="210" y="130" width="60" height="60" fill="#ffffff" stroke="#bbb" stroke-width="1"/>
<rect x="270" y="130" width="60" height="60" fill="#fafafa" stroke="#bbb" stroke-width="1"/>
<rect x="330" y="130" width="60" height="60" fill="#ffffff" stroke="#bbb" stroke-width="1"/>
<rect x="390" y="130" width="60" height="60" fill="#fafafa" stroke="#bbb" stroke-width="1"/>
<rect x="450" y="130" width="60" height="60" fill="#ffffff" stroke="#bbb" stroke-width="1"/>
<rect x="510" y="130" width="60" height="60" fill="#fafafa" stroke="#bbb" stroke-width="1"/>
<rect x="570" y="130" width="60" height="60" fill="#ffffff" stroke="#bbb" stroke-width="1"/>
<rect x="630" y="130" width="60" height="60" fill="#fafafa" stroke="#bbb" stroke-width="1"/>
<rect x="690" y="130" width="60" height="60" fill="#ffffff" stroke="#bbb" stroke-width="1"/>
<rect x="150" y="190" width="60" height="60" fill="#ffffff" stroke="#bbb" stroke-width="1"/>
<rect x="210" y="190" width="60" height="60" fill="#fafafa" stroke="#bbb" stroke-width="1"/>
<rect x="270" y="190" width="60" height="60" fill="#ffffff" stroke="#bbb" stroke-width="1"/>
<rect x="330" y="190" width="60" height="60" fill="#fafafa" stroke="#bbb" stroke-width="1"/>
<rect x="390" y="190" width="60" height="60" fill="#ffffff" stroke="#bbb" stroke-width="1"/>
<rect x="450" y="190" width="60" height="60" fill="#fafafa" stroke="#bbb" stroke-width="1"/>
<rect x="510" y="190" width="60" height="60" fill="#ffffff" stroke="#bbb" stroke-width="1"/>
<rect x="570" y="190" width="60" height="60" fill="#fafafa" stroke="#bbb" stroke-width="1"/>
<rect x="630" y="190" width="60" height="60" fill="#ffffff" stroke="#bbb" stroke-width="1"/>
<rect x="690" y="190" width="60" height="60" fill="#fafafa" stroke="#bbb" stroke-width="1"/>
<rect x="150" y="250" width="60" height="60" fill="#fafafa" stroke="#bbb" stroke-width="1"/>
<rect x="210" y="250" width="60" height="60" fill="#ffffff" stroke="#bbb" stroke-width="1"/>
<rect x="270" y="250" width="60" height="60" fill="#fafafa" stroke="#bbb" stroke-width="1"/>
<rect x="330" y="250" width="60" height="60" fill="#ffffff" stroke="#bbb" stroke-width="1"/>
<rect x="390" y="250" width="60" height="60" fill="#fafafa" stroke="#bbb" stroke-width="1"/>
<rect x="450" y="250" width="60" height="60" fill="#ffffff" stroke="#bbb" stroke-width="1"/>
<rect x="510" y="250" width="60" height="60" fill="#fafafa" stroke="#bbb" stroke-width="1"/>
<rect x="570" y="250" width="60" height="60" fill="#ffffff" stroke="#bbb" stroke-width="1"/>
<rect x="630" y="250" width="60" height="60" fill="#fafafa" stroke="#bbb" stroke-width="1"/>
<rect x="690" y="250" width="60" height="60" fill="#ffffff" stroke="#bbb" stroke-width="1"/>
<rect x="150" y="310" width="60" height="60" fill="#ffffff" stroke="#bbb" stroke-width="1"/>
<rect x="210" y="310" width="60" height="60" fill="#fafafa" stroke="#bbb" stroke-width="1"/>
<rect x="270" y="310" width="60" height="60" fill="#ffffff" stroke="#bbb" stroke-width="1"/>
<rect x="330" y="310" width="60" height="60" fill="#fafafa" stroke="#bbb" stroke-width="1"/>
<rect x="390" y="310" width="60" height="60" fill="#ffffff" stroke="#bbb" stroke-width="1"/>
<rect x="450" y="310" width="60" height="60" fill="#fafafa" stroke="#bbb" stroke-width="1"/>
<rect x="510" y="310" width="60" height="60" fill="#ffffff" stroke="#bbb" stroke-width="1"/>
<rect x="570" y="310" width="60" height="60" fill="#fafafa" stroke="#bbb" stroke-width="1"/>
<rect x="630" y="310" width="60" height="60" fill="#ffffff" stroke="#bbb" stroke-width="1"/>
<rect x="690" y="310" width="60" height="60" fill="#fafafa" stroke="#bbb" stroke-width="1"/>
<rect x="150" y="370" width="60" height="60" fill="#fafafa" stroke="#bbb" stroke-width="1"/>
<rect x="210" y="370" width="60" height="60" fill="#ffffff" stroke="#bbb" stroke-width="1"/>
<rect x="270" y="370" width="60" height="60" fill="#fafafa" stroke="#bbb" stroke-width="1"/>
<rect x="330" y="370" width="60" height="60" fill="#ffffff" stroke="#bbb" stroke-width="1"/>
<rect x="390" y="370" width="60" height="60" fill="#fafafa" stroke="#bbb" stroke-width="1"/>
<rect x="450" y="370" width="60" height="60" fill="#ffffff" stroke="#bbb" stroke-width="1"/>
<rect x="510" y="370" width="60" height="60" fill="#fafafa" stroke="#bbb" stroke-width="1"/>
<rect x="570" y="370" width="60" height="60" fill="#ffffff" stroke="#bbb" stroke-width="1"/>
<rect x="630" y="370" width="60" height="60" fill="#fafafa" stroke="#bbb" stroke-width="1"/>
<rect x="690" y="370" width="60" height="60" fill="#ffffff" stroke="#bbb" stroke-width="1"/>
<rect x="150" y="430" width="60" height="60" fill="#ffffff" stroke="#bbb" stroke-width="1"/>
<rect x="210" y="430" width="60" height="60" fill="#fafafa" stroke="#bbb" stroke-width="1"/>
<rect x="270" y="430" width="60" height="60" fill="#ffffff" stroke="#bbb" stroke-width="1"/>
<rect x="330" y="430" width="60" height="60" fill="#fafafa" stroke="#bbb" stroke-width="1"/>
<rect x="390" y="430" width="60" height="60" fill="#ffffff" stroke="#bbb" stroke-width="1"/>
<rect x="450" y="430" width="60" height="60" fill="#fafafa" stroke="#bbb" stroke-width="1"/>
<rect x="510" y="430" width="60" height="60" fill="#ffffff" stroke="#bbb" stroke-width="1"/>
<rect x="570" y="430" width="60" height="60" fill="#fafafa" stroke="#bbb" stroke-width="1"/>
<rect x="630" y="430" width="60" height="60" fill="#ffffff" stroke="#bbb" stroke-width="1"/>
<rect x="690" y="430" width="60" height="60" fill="#fafafa" stroke="#bbb" stroke-width="1"/>
<rect x="150" y="490" width="60" height="60" fill="#fafafa" stroke="#bbb" stroke-width="1"/>
<rect x="210" y="490" width="60" height="60" fill="#ffffff" stroke="#bbb" stroke-width="1"/>
<rect x="270" y="490" width="60" height="60" fill="#fafafa" stroke="#bbb" stroke-width="1"/>
<rect x="330" y="490" width="60" height="60" fill="#ffffff" stroke="#bbb" stroke-width="1"/>
<rect x="390" y="490" width="60" height="60" fill="#fafafa" stroke="#bbb" stroke-width="1"/>
<rect x="450" y="490" width="60" height="60" fill="#ffffff" stroke="#bbb" stroke-width="1"/>
<rect x="510" y="490" width="60" height="60" fill="#fafafa" stroke="#bbb" stroke-width="1"/>
<rect x="570" y="490" width="60" height="60" fill="#ffffff" stroke="#bbb" stroke-width="1"/>
<rect x="630" y="490" width="60" height="60" fill="#fafafa" stroke="#bbb" stroke-width="1"/>
<rect x="690" y="490" width="60" height="60" fill="#ffffff" stroke="#bbb" stroke-width="1"/>
<rect x="150" y="550" width="60" height="60" fill="#ffffff" stroke="#bbb" stroke-width="1"/>
<rect x="210" y="550" width="60" height="60" fill="#fafafa" stroke="#bbb" stroke-width="1"/>
<rect x="270" y="550" width="60" height="60" fill="#ffffff" stroke="#bbb" stroke-width="1"/>
<rect x="330" y="550" width="60" height="60" fill="#fafafa" stroke="#bbb" stroke-width="1"/>
<rect x="390" y="550" width="60" height="60" fill="#ffffff" stroke="#bbb" stroke-width="1"/>
<rect x="450" y="550" width="60" height="60" fill="#fafafa" stroke="#bbb" stroke-width="1"/>
<rect x="510" y="550" width="60" height="60" fill="#ffffff" stroke="#bbb" stroke-width="1"/>
<rect x="570" y="550" width="60" height="60" fill="#fafafa" stroke="#bbb" stroke-width="1"/>
<rect x="630" y="550" width="60" height="60" fill="#ffffff" stroke="#bbb" stroke-width="1"/>
<rect x="690" y="550" width="60" height="60" fill="#fafafa" stroke="#bbb" stroke-width="1"/>
<rect x="150" y="610" width="60" height="60" fill="#fafafa" stroke="#bbb" stroke-width="1"/>
<rect x="210" y="610" width="60" height="60" fill="#ffffff" stroke="#bbb" stroke-width="1"/>
<rect x="270" y="610" width="60" height="60" fill="#fafafa" stroke="#bbb" stroke-width="1"/>
<rect x="330" y="610" width="60" height="60" fill="#ffffff" stroke="#bbb" stroke-width="1"/>
<rect x="390" y="610" width="60" height="60" fill="#fafafa" stroke="#bbb" stroke-width="1"/>
<rect x="450" y="610" width="60" height="60" fill="#ffffff" stroke="#bbb" stroke-width="1"/>
<rect x="510" y="610" width="60" height="60" fill="#fafafa" stroke="#bbb" stroke-width="1"/>
<rect x="570" y="610" width="60" height="60" fill="#ffffff" stroke="#bbb" stroke-width="1"/>
<rect x="630" y="610" width="60" height="60" fill="#fafafa" stroke="#bbb" stroke-width="1"/>
<rect x="690" y="610" width="60" height="60" fill="#ffffff" stroke="#bbb" stroke-width="1"/>
<rect x="150" y="670" width="60" height="60" fill="#ffffff" stroke="#bbb" stroke-width="1"/>
<rect x="210" y="670" width="60" height="60" fill="#fafafa" stroke="#bbb" stroke-width="1"/>
<rect x="270" y="670" width="60" height="60" fill="#ffffff" stroke="#bbb" stroke-width="1"/>
<rect x="330" y="670" width="60" height="60" fill="#fafafa" stroke="#bbb" stroke-width="1"/>
<rect x="390" y="670" width="60" height="60" fill="#ffffff" stroke="#bbb" stroke-width="1"/>
<rect x="450" y="670" width="60" height="60" fill="#fafafa" stroke="#bbb" stroke-width="1"/>
<rect x="510" y="670" width="60" height="60" fill="#ffffff" stroke="#bbb" stroke-width="1"/>
<rect x="570" y="670" width="60" height="60" fill="#fafafa" stroke="#bbb" stroke-width="1"/>
<rect x="630" y="670" width="60" height="60" fill="#ffffff" stroke="#bbb" stroke-width="1"/>
<rect x="690" y="670" width="60" height="60" fill="#fafafa" stroke="#bbb" stroke-width="1"/>
<rect x="150" y="130" width="60" height="60" fill="none" stroke="#2563eb" stroke-width="3"/>
<text x="180.0" y="166.0" text-anchor="middle" font-size="15" font-weight="bold" fill="#2563eb">(0,0)</text>
<text x="180.0" y="116" text-anchor="middle" font-size="16" fill="#333">0</text>
<text x="240.0" y="116" text-anchor="middle" font-size="16" fill="#333">1</text>
<text x="300.0" y="116" text-anchor="middle" font-size="16" fill="#333">2</text>
<text x="360.0" y="116" text-anchor="middle" font-size="16" fill="#333">3</text>
<text x="420.0" y="116" text-anchor="middle" font-size="16" fill="#333">4</text>
<text x="480.0" y="116" text-anchor="middle" font-size="16" fill="#333">5</text>
<text x="540.0" y="116" text-anchor="middle" font-size="16" fill="#333">6</text>
<text x="600.0" y="116" text-anchor="middle" font-size="16" fill="#333">7</text>
<text x="660.0" y="116" text-anchor="middle" font-size="16" fill="#333">8</text>
<text x="720.0" y="116" text-anchor="middle" font-size="16" fill="#333">9</text>
<text x="450.0" y="92" text-anchor="middle" font-size="17" font-weight="bold" fill="#333">x (Spalte)</text>
<text x="132" y="166.0" text-anchor="end" font-size="16" fill="#333">0</text>
<text x="132" y="226.0" text-anchor="end" font-size="16" fill="#333">1</text>
<text x="132" y="286.0" text-anchor="end" font-size="16" fill="#333">2</text>
<text x="132" y="346.0" text-anchor="end" font-size="16" fill="#333">3</text>
<text x="132" y="406.0" text-anchor="end" font-size="16" fill="#333">4</text>
<text x="132" y="466.0" text-anchor="end" font-size="16" fill="#333">5</text>
<text x="132" y="526.0" text-anchor="end" font-size="16" fill="#333">6</text>
<text x="132" y="586.0" text-anchor="end" font-size="16" fill="#333">7</text>
<text x="132" y="646.0" text-anchor="end" font-size="16" fill="#333">8</text>
<text x="132" y="706.0" text-anchor="end" font-size="16" fill="#333">9</text>
<text x="80" y="430.0" text-anchor="middle" font-size="17" font-weight="bold" fill="#333" transform="rotate(-90 80 430.0)">y (Zeile)</text>
<circle cx="360.0" cy="580.0" r="18" fill="#f97316" stroke="#7c2d12" stroke-width="2"/>
<text x="360.0" y="552.0" text-anchor="middle" font-size="14" font-weight="bold" fill="#7c2d12">Position(x=3, y=7)</text>

<defs>
  <marker id="arrowhead" markerWidth="10" markerHeight="10" refX="8" refY="3" orient="auto">
    <polygon points="0 0, 9 3, 0 6" fill="#111"/>
  </marker>
</defs>

<line x1="580.0" y1="84" x2="580.0" y2="34" stroke="#111" stroke-width="3" marker-end="url(#arrowhead)"/>
<text x="580.0" y="24" text-anchor="middle" font-size="16" font-weight="bold" fill="#111">NORTH (y--)</text>
<line x1="320.0" y1="744" x2="320.0" y2="790" stroke="#111" stroke-width="3" marker-end="url(#arrowhead)"/>
<text x="320.0" y="812" text-anchor="middle" font-size="16" font-weight="bold" fill="#111">SOUTH (y++)</text>
<line x1="90" y1="280.0" x2="44" y2="280.0" stroke="#111" stroke-width="3" marker-end="url(#arrowhead)"/>
<text x="67.0" y="266.0" text-anchor="middle" font-size="16" font-weight="bold" fill="#111">WEST (x--)</text>
<line x1="764" y1="580.0" x2="810" y2="580.0" stroke="#111" stroke-width="3" marker-end="url(#arrowhead)"/>
<text x="787.0" y="566.0" text-anchor="middle" font-size="16" font-weight="bold" fill="#111">EAST (x++)</text>
</svg>